<svg xmlns="http://www.w3.org/2000/svg" viewBox="0 0 16 16">
  <defs>
    <style>.light-gray{fill: #DCDCDC; opacity: 1.0;}.dark-gray{fill: #1E1E1E; opacity: 1.0;}.light-blue{fill: #80C0FF; opacity: 1.0;}.cls-1{opacity: 0.8;}</style>
  </defs>
  <g class="cls-1">
    <path class="dark-gray" d="M11.5,1.5V6h-7V1.5Z" />
    <path class="dark-gray" d="M11.5,10.5v4h-7v-4Z" />
    <path class="dark-gray" d="M14.5,7.5v5H12v-2l-.5-.5h-7l-.5.5v2H1.5v-5a1,1,0,0,1,1-1h11A1,1,0,0,1,14.5,7.5Z" />
    <path class="light-gray" d="M12,1.5V6H11V2H5V6H4V1.5L4.5,1h7Z" />
    <path class="light-gray" d="M11.5,10h-7l-.5.5v4l.5.5h7l.5-.5v-4ZM11,14H5V11h6Z" />
    <path class="light-gray" d="M15,7.5v5l-.5.5H12V12h2V7.5a.5.5,0,0,0-.5-.5H2.5a.5.5,0,0,0-.5.5V12H4v1H1.5L1,12.5v-5A1.5,1.5,0,0,1,2.5,6h11A1.5,1.5,0,0,1,15,7.5Z" />
    <path class="light-blue" d="M4,8V9H3V8Z" />
  </g>
</svg>
