<svg xmlns="http://www.w3.org/2000/svg" viewBox="0 0 16 16">
  <defs>
    <style>.dark-gray{fill: #1E1E1E; opacity: 1.0;}.cls-1{opacity: 0.8;}</style>
  </defs>
  <g class="cls-1">
    <path class="dark-gray" d="M10.4,4.1,8,1.707V9H7V1.707L4.6,4.1,3.9,3.4,7.146.146h.708L11.1,3.4Z" transform="translate(+0.5,0) rotate(  0,8,8)" />
    <path class="dark-gray" d="M10.4,4.1,8,1.707V9H7V1.707L4.6,4.1,3.9,3.4,7.146.146h.708L11.1,3.4Z" transform="translate(0,+0.5) rotate( 90,8,8)" />
    <path class="dark-gray" d="M10.4,4.1,8,1.707V9H7V1.707L4.6,4.1,3.9,3.4,7.146.146h.708L11.1,3.4Z" transform="translate(-0.5,0) rotate(180,8,8)" />
    <path class="dark-gray" d="M10.4,4.1,8,1.707V9H7V1.707L4.6,4.1,3.9,3.4,7.146.146h.708L11.1,3.4Z" transform="translate(0,-0.5) rotate(270,8,8)" />
  </g>
</svg>
