<svg xmlns="http://www.w3.org/2000/svg" viewBox="0 0 16 16">
  <defs>
    <style>.light-gray{fill: #DCDCDC; opacity: 1.0;}.dark-gray{fill: #1E1E1E; opacity: 1.0;}.cls-1{opacity: 0.8;}</style>
  </defs>
  <g class="cls-1">
    <path class="light-gray" d="M13.5,4.825v6.35L8,14.351,2.5,11.175V4.825L8,1.649Z" />
    <path class="dark-gray" d="M8.5,1.50V7.571h-1V1.50Z" />
    <path class="dark-gray" d="M8.25,8.433l-5.5,3.175-.5-.866,5.5-3.175Z" />
    <path class="dark-gray" d="M13.75,10.742l-.5.866L7.75,8.433l.5-.866Z" />
    <path class="dark-gray" d="M13.75,4.392,8.25,1.216h-.5L2.25,4.392,2,4.825v6.35l.25.433,5.5,3.176h.5l5.5-3.176.25-.433V4.825ZM8,2.226l4.5,2.6L8,7.423l-4.5-2.6ZM3,5.691l4.5,2.6v5.2L3,10.887Zm5.5,7.794v-5.2l4.5-2.6v5.2Z" />
  </g>
</svg>
