<svg xmlns="http://www.w3.org/2000/svg" viewBox="0 0 16 16">
  <defs>
    <style>.light-gray{fill: #DCDCDC; opacity: 1.0;}.dark-gray{fill: #1E1E1E; opacity: 1.0;}.light-blue{fill: #80C0FF; opacity: 1.0;}.dark-blue{fill: #004080; opacity: 1.0;}.light-gray-and-dark-blue{fill: #6E8EAE; opacity: 1.0;}.cls-1{opacity: 0.8;}</style>
  </defs>
  <g class="cls-1">
    <path class="dark-gray" d="M13.5,11.18,8,14.35,2.5,11.18V4.82L8,1.65V8Z" />
    <path class="light-gray" d="M13.5,11.18,8,8V1.65l.25-.43h-.5L2.25,4.39,2,4.82v6.36l.25.43,5.5,3.17h.5l5.5-3.17.25-.43Zm-5-2.31,4,2.31-4,2.31ZM3,10.31V5.69L7,8ZM7.5,8.87v4.62l-4-2.31Zm0-1.74-4-2.31,4-2.31Z" />
    <path class="dark-blue" d="M13.5,4.825v6.35L8,8V1.649Z" />
    <path class="light-gray-and-dark-blue" d="M13.75,5.258,8.25,8.433l-.5-.866,5.5-3.175Z" />
    <path class="light-blue" d="M13.25,11.608,7.75,8.433,7.5,8V1.649l.75-.433,5.5,3.176.25.433v6.35ZM8.5,7.711l4.5,2.6v-5.2l-4.5-2.6Z" />
  </g>
</svg>
