<svg xmlns="http://www.w3.org/2000/svg" viewBox="0 0 16 16">
  <defs>
    <style>.light-gray{fill: #DCDCDC; opacity: 1.0;}.dark-gray{fill: #1E1E1E; opacity: 1.0;}.light-blue{fill: #80C0FF; opacity: 1.0;}.dark-blue{fill: #004080; opacity: 1.0;}.dark-gray-and-light-blue{fill: #4F6F8F; opacity: 1.0;}.cls-1{opacity: 0.8;}</style>
  </defs>
  <g class="cls-1">
    <path class="light-gray" d="M13.5,4.391v6.36L8,13.921l-5.5-3.17V4.391l.5.29,4.5,2.6.5.29.5-.29,4.5-2.6Z" />
    <path class="dark-gray" d="M2.25,11.181l5.5,3.17h.5l5.5-3.17.25-.43V4.391l-.25-.43-.25.43-.5.29v5.2l-4.5-2.6-.5.29-.5-.29L3,9.881v-5.2l-.5-.29-.25-.43L2,4.391v6.36ZM8.5,8.441l4,2.31-4,2.31Zm-1,0v4.62l-4-2.31Z" />
    <path class="light-blue" d="M13.5,4.4,8,7.571,2.5,4.4,8,1.22Z" />
    <path class="dark-gray-and-light-blue" d="M8.5,1.22V7.571h-1V1.22Z" />
    <path class="dark-blue" d="M8.25,8h-.5L2.25,4.829V3.962L7.75.787h.5l5.5,3.175v.867ZM3.5,4.4,8,6.994l4.5-2.6L8,1.8Z" />
  </g>
</svg>
