<svg xmlns="http://www.w3.org/2000/svg" viewBox="0 0 16 16">
  <defs>
    <style>.light-gray{fill: #DCDCDC; opacity: 1.0;}.dark-gray{fill: #1E1E1E; opacity: 1.0;}.light-blue{fill: #80C0FF; opacity: 1.0;}.dark-blue{fill: #004080; opacity: 1.0;}.light-gray-and-dark-blue{fill: #6E8EAE; opacity: 1.0;}.cls-1{opacity: 0.8;}</style>
  </defs>
  <g class="cls-1">
    <path class="dark-gray" d="M13.5,4.82,8,8v6.35L2.5,11.18V4.82L8,1.65Z" />
    <path class="light-gray" d="M14,4.82l-.25-.43L8.25,1.22h-.5L2.25,4.39,2,4.82v6.36l.25.43,5.5,3.17h.5L8,14.35V8l5.5-3.18ZM8.5,2.51l4,2.31-4,2.31ZM7,8,3,10.31V5.69ZM3.5,4.82l4-2.31V7.13Zm4,8.67-4-2.31,4-2.31Z" />
    <path class="dark-blue" d="M13.5,4.825v6.35L8,14.351V8Z" />
    <path class="light-gray-and-dark-blue" d="M13.75,10.742l-.5.866L7.75,8.433l.5-.866Z" />
    <path class="light-blue" d="M8.25,14.784l-.75-.433V8l.25-.433,5.5-3.175.75.433v6.35l-.25.433Zm.25-6.5v5.2l4.5-2.6v-5.2Z" />
  </g>
</svg>
